<svg xmlns="http://www.w3.org/2000/svg" width="24.827" height="22.57" viewBox="0 0 24.827 22.57">
  <path id="domain_FILL0_wght300_GRAD0_opsz48" d="M4.75,28.72V6.15H16.744v5.288H29.577V28.72ZM6.2,27.269h3.8V23.432H6.2Zm0-5.288h3.8v-3.8H6.2Zm0-5.288h3.8v-3.8H6.2Zm0-5.256h3.8V7.6H6.2Zm5.288,15.831h3.8V23.432h-3.8Zm0-5.288h3.8v-3.8h-3.8Zm0-5.288h3.8v-3.8h-3.8Zm0-5.256h3.8V7.6h-3.8Zm5.256,15.831H28.126V12.889H16.744v3.8h2.837v1.483H16.744v3.8h2.837v1.451H16.744ZM23,18.177V16.693h1.483v1.483Zm0,5.256V21.981h1.483v1.451Z" transform="translate(-4.75 -6.15)" fill="rgba(0,0,0,0.6)"/>
</svg>
