<svg xmlns="http://www.w3.org/2000/svg" width="25.037" height="16.698" viewBox="0 0 25.037 16.698">
  <path id="Icon_ionic-ios-arrow-round-forward" data-name="Icon ionic-ios-arrow-round-forward" d="M23.842,11.571a1.136,1.136,0,0,0-.009,1.6l5.287,5.3H9a1.131,1.131,0,0,0,0,2.261H29.112l-5.287,5.3a1.145,1.145,0,0,0,.009,1.6,1.126,1.126,0,0,0,1.591-.009L32.59,20.4h0a1.27,1.27,0,0,0,.235-.357,1.079,1.079,0,0,0,.087-.435,1.134,1.134,0,0,0-.322-.791L25.425,11.6A1.108,1.108,0,0,0,23.842,11.571Z" transform="translate(-7.875 -11.252)" fill="rgba(0,0,0,0.6)"/>
</svg>
