<svg xmlns="http://www.w3.org/2000/svg" width="25.037" height="16.698" viewBox="0 0 25.037 16.698">
  <path id="Icon_ionic-ios-arrow-round-forward" data-name="Icon ionic-ios-arrow-round-forward" d="M16.945,11.571a1.136,1.136,0,0,1,.009,1.6l-5.287,5.3H31.79a1.131,1.131,0,0,1,0,2.261H11.675l5.287,5.3a1.145,1.145,0,0,1-.009,1.6,1.126,1.126,0,0,1-1.591-.009L8.2,20.4h0a1.27,1.27,0,0,1-.235-.357,1.079,1.079,0,0,1-.087-.435,1.134,1.134,0,0,1,.322-.791L15.363,11.6A1.108,1.108,0,0,1,16.945,11.571Z" transform="translate(-7.875 -11.252)" fill="rgba(0,0,0,0.6)"/>
</svg>
