<svg xmlns="http://www.w3.org/2000/svg" width="20.548" height="18.265" viewBox="0 0 20.548 18.265">
  <path id="Icon_awesome-map-marked" data-name="Icon awesome-map-marked" d="M10.274,0A4.5,4.5,0,0,0,5.779,4.495c0,2.007,2.938,5.665,4.063,6.993a.563.563,0,0,0,.863,0c1.125-1.328,4.063-4.986,4.063-6.993A4.5,4.5,0,0,0,10.274,0ZM.718,7.7A1.142,1.142,0,0,0,0,8.764v8.93a.571.571,0,0,0,.783.53l4.925-2.242V7.667A10.8,10.8,0,0,1,4.95,6.011Zm9.556,5.127a1.7,1.7,0,0,1-1.3-.605c-.7-.828-1.447-1.77-2.122-2.737v6.493L13.7,18.264V9.489c-.675.966-1.421,1.909-2.122,2.737A1.705,1.705,0,0,1,10.274,12.831Zm9.491-7.082L14.84,7.991V18.265l4.99-2a1.141,1.141,0,0,0,.718-1.06V6.279A.571.571,0,0,0,19.765,5.749Z" fill="#fff"/>
</svg>
