<svg xmlns="http://www.w3.org/2000/svg" width="17.134" height="19.581" viewBox="0 0 17.134 19.581">
  <path id="Icon_awesome-calculator" data-name="Icon awesome-calculator" d="M15.3,0H1.836A1.882,1.882,0,0,0,0,1.836v15.91a1.882,1.882,0,0,0,1.836,1.836H15.3a1.882,1.882,0,0,0,1.836-1.836V1.836A1.882,1.882,0,0,0,15.3,0ZM4.9,16.644a.526.526,0,0,1-.49.49H2.937a.526.526,0,0,1-.49-.49V15.175a.526.526,0,0,1,.49-.49H4.406a.526.526,0,0,1,.49.49Zm0-4.9a.526.526,0,0,1-.49.49H2.937a.526.526,0,0,1-.49-.49V10.28a.526.526,0,0,1,.49-.49H4.406a.526.526,0,0,1,.49.49Zm4.9,4.9a.526.526,0,0,1-.49.49H7.832a.526.526,0,0,1-.49-.49V15.175a.526.526,0,0,1,.49-.49H9.3a.526.526,0,0,1,.49.49Zm0-4.9a.526.526,0,0,1-.49.49H7.832a.526.526,0,0,1-.49-.49V10.28a.526.526,0,0,1,.49-.49H9.3a.526.526,0,0,1,.49.49Zm4.9,4.9a.526.526,0,0,1-.49.49H12.728a.526.526,0,0,1-.49-.49V10.28a.526.526,0,0,1,.49-.49H14.2a.526.526,0,0,1,.49.49Zm0-9.791a.526.526,0,0,1-.49.49H2.937a.526.526,0,0,1-.49-.49V2.937a.526.526,0,0,1,.49-.49H14.2a.526.526,0,0,1,.49.49Z" fill="#e8c31b"/>
</svg>
