<svg xmlns="http://www.w3.org/2000/svg" width="20.288" height="17.752" viewBox="0 0 20.288 17.752">
  <path id="Icon_awesome-bath" data-name="Icon awesome-bath" d="M19.337,11.126H3.17V5.42a1.267,1.267,0,0,1,2.338-.678,2.693,2.693,0,0,0,.271,3.29.475.475,0,0,0,.019.651l.448.448a.476.476,0,0,0,.672,0l3.766-3.765a.476.476,0,0,0,0-.672l-.448-.448a.475.475,0,0,0-.651-.019,2.689,2.689,0,0,0-2.543-.609,3.169,3.169,0,0,0-5.775,1.8v5.706H.951A.951.951,0,0,0,0,12.077v.634a.951.951,0,0,0,.951.951h.317V14.93a3.794,3.794,0,0,0,1.268,2.835v1.286A.951.951,0,0,0,3.487,20h.634a.951.951,0,0,0,.951-.951v-.317H15.216v.317a.951.951,0,0,0,.951.951H16.8a.951.951,0,0,0,.951-.951V17.765A3.794,3.794,0,0,0,19.02,14.93V13.662h.317a.951.951,0,0,0,.951-.951v-.634A.951.951,0,0,0,19.337,11.126Z" transform="translate(0 -2.25)" fill="rgba(0,0,0,0.87)"/>
</svg>
