<svg xmlns="http://www.w3.org/2000/svg" width="17.595" height="17.595" viewBox="0 0 17.595 17.595">
  <path id="apartment_FILL1_wght400_GRAD0_opsz48" d="M6,23.595V10.032h4.032V6h9.53v8.064h4.032v9.53h-7.5V19.563H13.5v4.032Zm1.466-1.466h2.566V19.563H7.466Zm0-4.032h2.566V15.53H7.466Zm0-4.032h2.566V11.5H7.466ZM11.5,18.1h2.566V15.53H11.5Zm0-4.032h2.566V11.5H11.5Zm0-4.032h2.566V7.466H11.5ZM15.53,18.1H18.1V15.53H15.53Zm0-4.032H18.1V11.5H15.53Zm0-4.032H18.1V7.466H15.53Zm4.032,12.1h2.566V19.563H19.563Zm0-4.032h2.566V15.53H19.563Z" transform="translate(-6 -6)" fill="rgba(0,0,0,0.87)"/>
</svg>
