<svg xmlns="http://www.w3.org/2000/svg" width="20.941" height="12.565" viewBox="0 0 20.941 12.565">
  <path id="Icon_awesome-bed" data-name="Icon awesome-bed" d="M5.759,10.782A2.618,2.618,0,1,0,3.141,8.165,2.621,2.621,0,0,0,5.759,10.782ZM17.276,6.594H9.947a.523.523,0,0,0-.524.524v4.712H2.094V5.024A.523.523,0,0,0,1.571,4.5H.524A.523.523,0,0,0,0,5.024V16.541a.523.523,0,0,0,.524.524H1.571a.523.523,0,0,0,.524-.524V14.971H18.847v1.571a.523.523,0,0,0,.524.524h1.047a.523.523,0,0,0,.524-.524V10.259A3.665,3.665,0,0,0,17.276,6.594Z" transform="translate(0 -4.5)" fill="rgba(0,0,0,0.87)"/>
</svg>
