<svg xmlns="http://www.w3.org/2000/svg" width="16.837" height="16.837" viewBox="0 0 16.837 16.837">
  <path id="Icon_awesome-vector-square" data-name="Icon awesome-vector-square" d="M16.837,4.209V1.052A1.052,1.052,0,0,0,15.784,0H12.628a1.052,1.052,0,0,0-1.052,1.052H5.261A1.052,1.052,0,0,0,4.209,0H1.052A1.052,1.052,0,0,0,0,1.052V4.209A1.052,1.052,0,0,0,1.052,5.261v6.314A1.052,1.052,0,0,0,0,12.628v3.157a1.052,1.052,0,0,0,1.052,1.052H4.209a1.052,1.052,0,0,0,1.052-1.052h6.314a1.052,1.052,0,0,0,1.052,1.052h3.157a1.052,1.052,0,0,0,1.052-1.052V12.628a1.052,1.052,0,0,0-1.052-1.052V5.261A1.052,1.052,0,0,0,16.837,4.209ZM13.68,2.1h1.052V3.157H13.68ZM2.1,2.1H3.157V3.157H2.1ZM3.157,14.732H2.1V13.68H3.157Zm11.575,0H13.68V13.68h1.052ZM13.68,11.575H12.628a1.052,1.052,0,0,0-1.052,1.052V13.68H5.261V12.628a1.052,1.052,0,0,0-1.052-1.052H3.157V5.261H4.209A1.052,1.052,0,0,0,5.261,4.209V3.157h6.314V4.209a1.052,1.052,0,0,0,1.052,1.052H13.68Z" fill="rgba(0,0,0,0.87)"/>
</svg>
