<svg xmlns="http://www.w3.org/2000/svg" width="24.896" height="24.896" viewBox="0 0 24.896 24.896">
  <path id="apartment_FILL0_wght300_GRAD0_opsz48" d="M6.5,31.046V11.983h5.833V6.15H25.6V17.78h5.8V31.046H21.082V25.213H16.814v5.833Zm1.6-1.6h4.232V25.213H8.1Zm0-5.833h4.232v-4.2H8.1Zm0-5.833h4.232v-4.2H8.1Zm5.833,5.833h4.2v-4.2h-4.2Zm0-5.833h4.2v-4.2h-4.2Zm0-5.8h4.2V7.75h-4.2Zm5.833,11.63h4.2v-4.2h-4.2Zm0-5.833h4.2v-4.2h-4.2Zm0-5.8h4.2V7.75h-4.2ZM25.6,29.446h4.2V25.213H25.6Zm0-5.833h4.2v-4.2H25.6Z" transform="translate(-6.5 -6.15)" fill="rgba(0,0,0,0.6)"/>
</svg>
