<svg xmlns="http://www.w3.org/2000/svg" width="20.081" height="20.081" viewBox="0 0 20.081 20.081">
  <path id="monetization_on_FILL0_wght400_GRAD0_opsz48" d="M14.016,21.245a.633.633,0,0,0,.477-.213.694.694,0,0,0,.2-.489v-.6a3.95,3.95,0,0,0,2.372-1.017,2.862,2.862,0,0,0,.866-2.146,2.958,2.958,0,0,0-.715-2.083,5.838,5.838,0,0,0-2.473-1.355A6.758,6.758,0,0,1,12.572,12.3a1.7,1.7,0,0,1-.59-1.343,1.456,1.456,0,0,1,.565-1.217A2.454,2.454,0,0,1,14.091,9.3a2.491,2.491,0,0,1,1.079.226A2.283,2.283,0,0,1,16,10.2a.9.9,0,0,0,.427.276.594.594,0,0,0,.477-.05.64.64,0,0,0,.364-.4.518.518,0,0,0-.088-.5,3.233,3.233,0,0,0-1.042-.954,3.441,3.441,0,0,0-1.393-.427v-.6a.686.686,0,0,0-.678-.678.694.694,0,0,0-.489.2.633.633,0,0,0-.213.477v.6a3.381,3.381,0,0,0-2.021.929,2.577,2.577,0,0,0-.741,1.883,2.859,2.859,0,0,0,.64,1.958,6.045,6.045,0,0,0,2.372,1.381,8.731,8.731,0,0,1,2.36,1.18,1.648,1.648,0,0,1,.577,1.305,1.746,1.746,0,0,1-.678,1.393,2.5,2.5,0,0,1-1.657.565,2.966,2.966,0,0,1-1.519-.4,2.726,2.726,0,0,1-1.067-1.13.874.874,0,0,0-.339-.314.539.539,0,0,0-.439-.038.732.732,0,0,0-.439.389.552.552,0,0,0,.063.54,4.659,4.659,0,0,0,1.192,1.343,4.735,4.735,0,0,0,1.644.766v.678a.633.633,0,0,0,.213.477.694.694,0,0,0,.489.2Zm.025,2.836a10.184,10.184,0,0,1-3.966-.766,9.718,9.718,0,0,1-5.309-5.309A10.184,10.184,0,0,1,4,14.041,10.119,10.119,0,0,1,4.766,10.1,9.8,9.8,0,0,1,6.887,6.912,10.01,10.01,0,0,1,14.041,4,9.96,9.96,0,0,1,24.081,14.041a10.01,10.01,0,0,1-2.912,7.154,9.8,9.8,0,0,1-3.188,2.121A10.119,10.119,0,0,1,14.041,24.081ZM14.041,14.041Zm0,8.535a8.362,8.362,0,0,0,8.535-8.535,8.362,8.362,0,0,0-8.535-8.535,8.362,8.362,0,0,0-8.535,8.535,8.362,8.362,0,0,0,8.535,8.535Z" transform="translate(-4 -4)" fill="rgba(0,0,0,0.38)"/>
</svg>
