<svg xmlns="http://www.w3.org/2000/svg" width="18.078" height="18.109" viewBox="0 0 18.078 18.109">
  <path id="Icon_feather-phone-call" data-name="Icon feather-phone-call" d="M13.387,4.659a3.949,3.949,0,0,1,3.12,3.12M13.387,1.5a7.108,7.108,0,0,1,6.279,6.271m-.79,6.3v2.369a1.58,1.58,0,0,1-1.722,1.58A15.63,15.63,0,0,1,10.338,15.6,15.4,15.4,0,0,1,5.6,10.859,15.63,15.63,0,0,1,3.174,4.012,1.58,1.58,0,0,1,4.746,2.29H7.115A1.58,1.58,0,0,1,8.7,3.648a10.141,10.141,0,0,0,.553,2.219,1.58,1.58,0,0,1-.355,1.667l-1,1a12.637,12.637,0,0,0,4.739,4.739l1-1a1.58,1.58,0,0,1,1.667-.355,10.141,10.141,0,0,0,2.219.553A1.58,1.58,0,0,1,18.876,14.074Z" transform="translate(-2.417 -0.672)" fill="none" stroke="rgba(0,0,0,0.87)" stroke-linecap="round" stroke-linejoin="round" stroke-width="1.5"/>
</svg>
