<svg xmlns="http://www.w3.org/2000/svg" width="19.966" height="20.002" viewBox="0 0 19.966 20.002">
  <path id="Icon_feather-phone" data-name="Icon feather-phone" d="M21.132,16.476v2.71a1.806,1.806,0,0,1-1.969,1.806,17.875,17.875,0,0,1-7.795-2.773A17.613,17.613,0,0,1,5.948,12.8,17.875,17.875,0,0,1,3.175,4.969,1.806,1.806,0,0,1,4.973,3h2.71A1.806,1.806,0,0,1,9.489,4.554a11.6,11.6,0,0,0,.632,2.538A1.806,1.806,0,0,1,9.715,9L8.568,10.145a14.452,14.452,0,0,0,5.419,5.419l1.147-1.147a1.806,1.806,0,0,1,1.906-.406,11.6,11.6,0,0,0,2.538.632,1.806,1.806,0,0,1,1.554,1.834Z" transform="translate(-2.167 -2)" fill="none" stroke="rgba(0,0,0,0.6)" stroke-linecap="round" stroke-linejoin="round" stroke-width="2"/>
</svg>
