<svg xmlns="http://www.w3.org/2000/svg" width="22.008" height="24.796" viewBox="0 0 22.008 24.796">
  <path id="night_shelter_FILL0_wght300_GRAD0_opsz48" d="M9,32V15.49L20,7.2l11,8.29V32Zm1.651-1.651H29.357V16.333L20,9.291l-9.353,7.043Zm2.568-2.421h1.357V25.907H25.433v2.017H26.79V22.532a2.59,2.59,0,0,0-.807-1.926,2.638,2.638,0,0,0-1.907-.789H19.344V24.55H14.575V18.461H13.218Zm3.741-4.071a1.657,1.657,0,0,0,1.192-.477,1.608,1.608,0,0,0,.5-1.21,1.691,1.691,0,0,0-1.687-1.687,1.608,1.608,0,0,0-1.21.5,1.657,1.657,0,0,0-.477,1.192,1.608,1.608,0,0,0,.5,1.21,1.657,1.657,0,0,0,1.192.477Zm-6.309,6.492h0Z" transform="translate(-9 -7.2)" fill="rgba(0,0,0,0.6)"/>
</svg>
