<svg xmlns="http://www.w3.org/2000/svg" width="20.201" height="15.992" viewBox="0 0 20.201 15.992">
  <g id="Icon_ionic-ios-list" data-name="Icon ionic-ios-list" transform="translate(-4.5 -7.313)">
    <path id="Path_9638" data-name="Path 9638" d="M7.446,17.5a1.473,1.473,0,1,1-1.473-1.473A1.473,1.473,0,0,1,7.446,17.5Z" transform="translate(0 -2.196)"/>
    <path id="Path_9639" data-name="Path 9639" d="M7.446,8.785A1.473,1.473,0,1,1,5.973,7.313,1.473,1.473,0,0,1,7.446,8.785Z"/>
    <path id="Path_9640" data-name="Path 9640" d="M7.446,26.223A1.473,1.473,0,1,1,5.973,24.75a1.473,1.473,0,0,1,1.473,1.473Z" transform="translate(0 -4.391)"/>
    <path id="Path_9641" data-name="Path 9641" d="M25.833,16.875H13.182a.842.842,0,1,0,0,1.683H25.833a.842.842,0,0,0,0-1.683Z" transform="translate(-1.974 -2.408)"/>
    <path id="Path_9642" data-name="Path 9642" d="M25.833,25.594H13.182a.842.842,0,1,0,0,1.683H25.833a.842.842,0,0,0,0-1.683Z" transform="translate(-1.974 -4.604)"/>
    <path id="Path_9643" data-name="Path 9643" d="M13.182,9.84H25.833a.842.842,0,1,0,0-1.683H13.182a.842.842,0,1,0,0,1.683Z" transform="translate(-1.974 -0.212)"/>
  </g>
</svg>
