<svg xmlns="http://www.w3.org/2000/svg" width="24.123" height="20.33" viewBox="0 0 24.123 20.33">
  <path id="forest_FILL0_wght300_GRAD0_opsz48" d="M9.513,26.08V21.932H1.9L6.866,14.7H4.383l6.3-8.95,3.275,4.639L17.236,5.75l6.3,8.95H21.083l4.939,7.231H18.437V26.08H16.062V21.932H11.887V26.08ZM18.655,20.7h4.994l-4.966-7.231h2.374l-3.82-5.43L14.78,11.535,16.99,14.7H14.534ZM4.3,20.7H17.1l-4.966-7.231h2.374l-3.82-5.43-3.82,5.43H9.24Zm0,0h0Zm14.353,0h0Zm-2.592,1.228h0ZM19.5,21.932Z" transform="translate(-1.9 -5.75)" fill="rgba(0,0,0,0.6)"/>
</svg>
