<svg xmlns="http://www.w3.org/2000/svg" width="418" height="208.31" viewBox="0 0 418 208.31">
  <g id="Group_9403" data-name="Group 9403" transform="translate(0 0)">
    <circle id="Ellipse_7" data-name="Ellipse 7" cx="20.547" cy="20.547" r="20.547" transform="translate(93.581 129.28)" fill="#68a533"/>
    <path id="Path_9360" data-name="Path 9360" d="M354.579,519.474a20.549,20.549,0,0,0,34.237,21.746,20.549,20.549,0,1,1-34.237-21.746Z" transform="translate(-255.622 -383.371)" opacity="0.2"/>
    <path id="Path_9361" data-name="Path 9361" d="M247.05,325.819h.056l1.016,58.254h-2.145Z" transform="translate(-132.865 -175.992)" fill="#3f3d56"/>
    <circle id="Ellipse_8" data-name="Ellipse 8" cx="41.426" cy="41.426" r="41.426" transform="translate(31.129 49.204)" fill="#68a533"/>
    <path id="Path_9362" data-name="Path 9362" d="M224.433,360.416a41.43,41.43,0,0,0,69.028,43.844,41.43,41.43,0,1,1-69.028-43.844Z" transform="translate(-182.465 -297.455)" opacity="0.2"/>
    <path id="Path_9363" data-name="Path 9363" d="M155.489,197.087h.114l2.049,117.451h-4.325Z" transform="translate(-82.82 -106.457)" fill="#3f3d56"/>
    <rect id="Rectangle_2107" data-name="Rectangle 2107" width="189.881" height="56.289" transform="translate(155.8 147.289)" fill="rgba(0,0,0,0.38)"/>
    <rect id="Rectangle_2108" data-name="Rectangle 2108" width="22.14" height="44.656" transform="translate(239.67 158.922)" fill="#cacaca"/>
    <rect id="Rectangle_2109" data-name="Rectangle 2109" width="167.74" height="51.786" transform="translate(166.87 80.868)" fill="#a5a5a5"/>
    <path id="Path_9364" data-name="Path 9364" d="M671.169,307.558H469.417a1.689,1.689,0,0,1-1.17-2.906l55.139-53V228.566a1.691,1.691,0,0,1,1.689-1.689h10.882a1.69,1.69,0,0,1,1.689,1.689v9.379l4.165-4a37.419,37.419,0,0,1,50.951-.847L672.3,304.613a1.689,1.689,0,0,1-1.129,2.945Z" transform="translate(-319.553 -223.5)" fill="#a44b4b"/>
    <path id="Path_9365" data-name="Path 9365" d="M446.614,204.421h0a10.7,10.7,0,0,1,10.695,10.695v14.447H435.919V215.116a10.7,10.7,0,0,1,10.695-10.695Z" transform="translate(-235.463 -110.419)" fill="#fff"/>
    <path id="Path_9366" data-name="Path 9366" d="M532.707,204.829h0A10.7,10.7,0,0,1,543.4,215.524v14.447h-21.39V215.524A10.7,10.7,0,0,1,532.707,204.829Z" transform="translate(-281.967 -110.639)" fill="#fff"/>
    <path id="Path_9367" data-name="Path 9367" d="M618.8,205.237h0A10.7,10.7,0,0,1,629.5,215.932v14.447h-21.39V215.932A10.7,10.7,0,0,1,618.8,205.237Z" transform="translate(-328.471 -110.859)" fill="#fff"/>
    <path id="Path_9368" data-name="Path 9368" d="M653.075,344.373h0a10.7,10.7,0,0,1,10.695,10.695v14.447H642.38V355.068A10.7,10.7,0,0,1,653.075,344.373Z" transform="translate(-346.984 -186.014)" fill="#fff"/>
    <path id="Path_9369" data-name="Path 9369" d="M422.949,344.373h0a10.7,10.7,0,0,1,10.695,10.695v14.447H412.254V355.068a10.7,10.7,0,0,1,10.695-10.695Z" transform="translate(-222.681 -186.014)" fill="#fff"/>
    <path id="Path_9370" data-name="Path 9370" d="M668.295,527.047l-35.62-15.761a1.5,1.5,0,0,0-.607-.128H462.312a1.5,1.5,0,0,0-.565.111l-38.772,15.761a1.5,1.5,0,0,0,.565,2.892H433.6v51.786h-1.126v5.254h226.28v-5.254h-1.876V529.921h10.81a1.5,1.5,0,0,0,.607-2.874Zm-14.419,54.659H436.6V529.921H653.875Z" transform="translate(-294.874 -378.879)" fill="#cacaca"/>
    <rect id="Rectangle_2110" data-name="Rectangle 2110" width="27.394" height="4.503" transform="translate(197.078 117.081)" fill="#cacaca"/>
    <rect id="Rectangle_2111" data-name="Rectangle 2111" width="27.394" height="4.503" transform="translate(237.231 117.081)" fill="#cacaca"/>
    <rect id="Rectangle_2112" data-name="Rectangle 2112" width="27.394" height="4.503" transform="translate(277.383 117.081)" fill="#cacaca"/>
    <rect id="Rectangle_2113" data-name="Rectangle 2113" width="27.394" height="4.503" transform="translate(292.394 182)" fill="#cacaca"/>
    <rect id="Rectangle_2114" data-name="Rectangle 2114" width="27.394" height="4.503" transform="translate(186.196 182)" fill="#cacaca"/>
    <path id="Path_9371" data-name="Path 9371" d="M563.04,675.42H145.96a.46.46,0,0,1,0-.92H563.04a.46.46,0,1,1,0,.92Z" transform="translate(-145.5 -467.109)" fill="#3f3d56"/>
    <path id="Path_9372" data-name="Path 9372" d="M708.639,389.572c0,.294,0,.593-.009.888,0,.354-.014.7-.028,1.058-.014.308-.028.612-.046.915-.055,1.016-.143,2.028-.262,3.044-.028.258-.06.51-.1.768-.028.2-.055.4-.087.6-.032.225-.064.451-.1.676q-.11.717-.248,1.435c-.046.239-.092.478-.142.717-.1.474-.2.952-.313,1.426-.009.037-.018.078-.028.115-.055.234-.11.464-.17.7-.018.069-.032.133-.055.2-.041.175-.087.349-.133.524-.064.244-.129.483-.2.727-.11.377-.221.75-.336,1.127a1.191,1.191,0,0,0-.037.12c-.221.713-.455,1.416-.713,2.115-.133.368-.276.74-.418,1.108s-.29.736-.441,1.1-.3.708-.451,1.058c-.037.083-.074.165-.115.248-.161.363-.327.717-.5,1.071,0,0,0,.014-.009.018-.133.285-.276.57-.419.851a.034.034,0,0,1-.009.023c-.138.276-.28.552-.428.823l-.234.446-.028.051c-.294.547-.6,1.09-.92,1.628-.069.12-.138.239-.207.354s-.143.239-.216.354q-.069.124-.152.248c-.1.156-.193.317-.294.474-.018.032-.041.064-.06.1-.175.271-.349.538-.524.809-.216.326-.437.648-.662.97l-4.994,7.992-.216-.179-.06-.055h0l-.2-.166-.543-.46c-.166.161-.327.322-.492.478-.064.064-.133.124-.2.189-.051.046-.1.092-.147.138a48.154,48.154,0,0,1-32.18,13.68h-.014a52.559,52.559,0,0,1-26.225-6.189c-.179-.092-.354-.184-.529-.29-1.048-.57-2.074-1.173-3.081-1.816,0,0-.009,0-.014-.009q-1.752-1.242-3.421-2.649a50.55,50.55,0,0,1-17.9-41.29c.014-.308.032-.612.055-.92q.11-1.669.34-3.325c.041-.308.088-.616.133-.92H708.17q.29,2.111.4,4.244C708.616,387.8,708.639,388.685,708.639,389.572Z" transform="translate(-396.005 -309.476)" fill="#f0f0f0"/>
    <path id="Path_9373" data-name="Path 9373" d="M708.316,332.967a49.706,49.706,0,0,0-98.306,0c-.046.3-.092.612-.133.92q-.227,1.655-.34,3.325h99.18Q708.605,335.08,708.316,332.967Z" transform="translate(-396.151 -259.773)" fill="#e8c31b"/>
    <path id="Path_9374" data-name="Path 9374" d="M691,454.569H662.521V431.785c.525-10.412,9.425-11.253,17.787-10.694A10.694,10.694,0,0,1,691,431.786Z" transform="translate(-424.771 -330.159)" fill="#e8c31b"/>
    <path id="Path_9375" data-name="Path 9375" d="M633.753,367.381v0s0,0,.009,0ZM622.3,332.363c-.018.115-.041.23-.06.345.018-.115.041-.23.064-.345Zm-.57,4.244c-.014.175-.028.349-.037.524q.014-.262.041-.524a.646.646,0,0,1,0-.1c0,.032,0,.064-.009.1Zm12.025,30.777s0,0,.009,0l-.009-.009ZM622.3,332.363c-.018.115-.041.23-.06.345.018-.115.041-.23.064-.345Zm-.607,4.769q.014-.262.041-.524a.646.646,0,0,1,0-.1c0,.032,0,.064-.009.1C621.714,336.783,621.7,336.957,621.691,337.132Zm142.065,84.593a3.131,3.131,0,0,0-.285-.267l0,0-22.772-19.217-.589-.5-2.239-1.89-.561-.474-3.191-2.695-.874-.736-1.807-1.527-.924-.782-8.719-7.353-5-4.217-.671-.566-14.729-12.43c.225-.322.446-.644.662-.97.175-.271.349-.538.524-.809.018-.032.041-.064.06-.1.1-.156.2-.317.294-.474q.083-.124.152-.248c.074-.115.147-.235.216-.354s.138-.234.207-.354c.322-.538.625-1.081.92-1.628l.028-.051.235-.446c.147-.271.29-.547.428-.823a.034.034,0,0,0,.009-.023c.143-.28.285-.566.418-.851,0,0,0-.014.009-.018.17-.354.336-.708.5-1.071.041-.083.078-.166.115-.248.152-.349.3-.7.451-1.058s.3-.731.441-1.1.285-.74.419-1.108q.379-1.055.713-2.115a1.2,1.2,0,0,1,.037-.12c.115-.377.225-.75.336-1.127.069-.244.133-.483.2-.727.046-.175.092-.349.133-.524.023-.069.037-.133.055-.2.06-.234.115-.464.17-.7.009-.037.018-.078.028-.115.11-.474.216-.952.313-1.426.051-.239.1-.478.142-.717.087-.478.175-.956.248-1.435.037-.225.069-.451.1-.676.032-.2.06-.4.087-.6.037-.257.069-.51.1-.768.12-1.016.207-2.028.262-3.044.018-.3.032-.607.046-.915.014-.354.023-.7.028-1.058,0-.294.009-.593.009-.888,0-.887-.023-1.77-.069-2.658q-.111-2.131-.4-4.244a50.607,50.607,0,0,0-100.145-.92c-.046.3-.092.612-.133.92q-.227,1.655-.34,3.325c-.023.308-.041.612-.055.92a50.549,50.549,0,0,0,17.9,41.29q1.669,1.407,3.421,2.649s.009,0,.014.009c.391.276.782.547,1.177.814.63.414,1.265.819,1.9,1.2.051.028.1.06.152.087.552.331,1.108.648,1.665.956h0a49.735,49.735,0,0,0,6.433,2.961,50.759,50.759,0,0,0,20.339,3.191h.014a50.473,50.473,0,0,0,22.951-6.792c1.016-.589,2.019-1.219,3-1.89.244-.166.492-.336.731-.506.294-.207.589-.423.883-.639,0,0,0,0,.009,0a.667.667,0,0,1,.069-.051c.2-.152.4-.3.593-.451.051-.037.1-.074.152-.115a.219.219,0,0,0,.037-.032c.115-.083.225-.175.34-.262s.225-.179.34-.271a.438.438,0,0,0,.055-.041c.129-.106.258-.207.386-.313s.262-.216.386-.322.253-.212.382-.322c.11-.092.225-.189.336-.29.037-.028.069-.06.106-.092a.325.325,0,0,1,.046-.037c.152-.129.3-.262.446-.4.037-.032.069-.064.106-.1.225-.2.451-.4.671-.616l.156-.143c.051-.046.1-.092.147-.138.064-.064.133-.124.2-.188.166-.156.327-.317.492-.478l.543.46.2.166h0l.06.055.216.179,3.21,2.713.069.06.055.041.363.308.727.616.727.612.106.087,3.38,2.851.469.4,3.26,2.75,16.876,14.241.589.5,23.1,19.488,5.923,5,2.2,1.858a4.66,4.66,0,0,0,6.571-.552,4.527,4.527,0,0,0,.777-1.306A4.64,4.64,0,0,0,763.756,421.725Zm-133.2-106.6a37.913,37.913,0,0,1,66.195,17.235c.06.308.115.612.165.92.189,1.1.326,2.212.409,3.325.023.308.046.612.06.92.041.69.06,1.384.06,2.074a37.744,37.744,0,0,1-2.051,12.3v0a37.712,37.712,0,0,1-6.884,12.131c-.064.074-.129.152-.2.225-.607.717-1.246,1.407-1.9,2.065,0,0-.009.014-.014.018-.225.225-.455.455-.685.667-.469.455-.947.887-1.435,1.3q-1.1.959-2.249,1.8c-.258.188-.515.372-.777.556s-.52.359-.782.533c-.524.349-1.058.685-1.6,1-.267.161-.543.317-.814.469s-.547.3-.823.446-.552.29-.832.428c-.556.281-1.117.543-1.688.786q-.428.193-.855.359c-.179.074-.354.147-.533.212a1.741,1.741,0,0,1-.216.083q-.145.062-.29.11a.832.832,0,0,1-.1.037c-.2.078-.391.147-.593.216-.29.106-.58.2-.874.294s-.584.189-.878.271-.593.175-.888.253-.593.161-.892.23c-.317.083-.634.156-.956.225-.28.064-.556.12-.837.17-.262.055-.529.1-.791.147-.368.064-.736.124-1.108.175-.2.032-.4.06-.6.078-.087.014-.17.023-.253.032-.258.037-.515.064-.768.087-.069,0-.133.014-.2.018-.28.028-.566.051-.846.074-.6.041-1.2.069-1.8.083-.3,0-.612.009-.915.009s-.607,0-.91-.014c0,0,0,0,0,0s0,0-.009,0l0,0,0,0a.078.078,0,0,1-.046,0c-.216,0-.432-.009-.644-.023-.156,0-.317-.009-.478-.023q-.324-.014-.648-.041c-.069,0-.138-.009-.207-.014a.687.687,0,0,1-.1-.009c-.221-.018-.446-.037-.667-.06-.11-.009-.225-.018-.336-.032-.336-.037-.671-.078-1-.124-.377-.046-.754-.1-1.127-.17-.175-.023-.345-.055-.515-.087q-.338-.055-.676-.124c-.235-.046-.469-.092-.7-.147-.188-.041-.382-.083-.57-.129-.092-.018-.184-.041-.271-.064-.483-.115-.961-.239-1.435-.377-.3-.083-.6-.17-.892-.262-.4-.124-.8-.257-1.2-.4-.156-.051-.308-.106-.465-.166s-.308-.11-.464-.17-.285-.106-.423-.161c-.23-.087-.455-.179-.681-.271-.464-.189-.92-.386-1.375-.6-.258-.124-.515-.244-.768-.368q-1.5-.724-2.948-1.609c-.239-.143-.478-.294-.717-.446-.3-.184-.589-.377-.878-.57-.161-.11-.317-.216-.474-.326-.29-.2-.575-.409-.855-.616-.147-.106-.294-.216-.437-.326-.511-.386-1.012-.791-1.5-1.2-.234-.2-.469-.4-.7-.607-.1-.083-.193-.17-.29-.258s-.221-.2-.326-.3l-.009-.009c-.161-.143-.322-.294-.478-.446-.244-.23-.483-.464-.713-.7s-.469-.478-.694-.717-.451-.483-.667-.731-.437-.492-.648-.745-.409-.487-.6-.731q-.7-.869-1.343-1.77c-.2-.276-.386-.552-.57-.832s-.386-.575-.566-.865-.368-.584-.543-.883a.1.1,0,0,0-.018-.028c-.345-.584-.676-1.173-.984-1.77s-.616-1.22-.9-1.839c-.143-.308-.281-.621-.409-.933-.267-.63-.515-1.26-.745-1.9-.115-.308-.221-.616-.326-.929a.228.228,0,0,0-.018-.06c-.211-.635-.4-1.274-.575-1.918,0-.009,0-.018-.009-.028-.087-.317-.17-.635-.244-.957-.074-.28-.138-.561-.2-.846-.069-.317-.138-.635-.2-.956-.032-.166-.064-.331-.092-.5-.028-.138-.051-.28-.074-.418s-.046-.281-.069-.423q-.069-.421-.124-.842c-.046-.331-.083-.662-.12-1-.042-.4-.078-.8-.11-1.2-.023-.271-.037-.547-.051-.823-.014-.253-.028-.506-.032-.759a.063.063,0,0,1,0-.041.006.006,0,0,1,0,0,.006.006,0,0,1,0,0s0,0,0-.009a.007.007,0,0,1,0,0,.006.006,0,0,1,0,0c0-.1-.009-.2-.009-.3q-.014-.448-.014-.9c0-.271,0-.538.009-.809q.014-.566.041-1.131c0-.083.009-.161.014-.244s.009-.161.014-.244q.014-.262.041-.524a.681.681,0,0,1,0-.1c.014-.2.032-.4.051-.593.037-.4.083-.8.133-1.191.028-.2.051-.4.083-.593.018-.138.041-.28.064-.423s.041-.285.069-.428c.032-.189.064-.382.1-.575.018-.115.041-.23.064-.345q.131-.69.29-1.379c.106-.464.225-.924.354-1.384s.262-.929.409-1.393c.069-.234.143-.464.225-.694.152-.464.313-.924.492-1.38.083-.225.17-.455.267-.681.184-.455.377-.91.575-1.357.1-.225.2-.451.313-.676.207-.446.423-.892.658-1.329s.469-.883.717-1.315.506-.865.777-1.292c.124-.212.262-.428.4-.635.276-.423.566-.846.86-1.26C629.237,316.752,629.876,315.929,630.552,315.128Zm-8.824,21.479c-.014.175-.028.35-.037.524q.014-.262.041-.524a.646.646,0,0,1,0-.1C621.732,336.543,621.732,336.576,621.728,336.608Zm.57-4.244c-.018.115-.041.23-.06.345.018-.115.041-.23.064-.345Zm11.455,35.017v0s0,0,.009,0Z" transform="translate(-396.005 -259.17)" fill="#3f3d56"/>
    <path id="Path_9376" data-name="Path 9376" d="M644.872,401.508a37.916,37.916,0,0,1-6.434-50.969q-1.087,1.1-2.1,2.294a37.914,37.914,0,1,0,57.954,48.9q1.013-1.2,1.907-2.458A37.916,37.916,0,0,1,644.872,401.508Z" transform="translate(-405.799 -292.12)" opacity="0.3"/>
  </g>
</svg>
