<svg xmlns="http://www.w3.org/2000/svg" width="26.893" height="26.94" viewBox="0 0 26.893 26.94">
  <path id="Icon_feather-phone-call" data-name="Icon feather-phone-call" d="M18.521,6.247a5.933,5.933,0,0,1,4.687,4.687M18.521,1.5a10.68,10.68,0,0,1,9.434,9.422m-1.187,9.469v3.56a2.373,2.373,0,0,1-2.587,2.373A23.484,23.484,0,0,1,13.94,22.681a23.139,23.139,0,0,1-7.12-7.12A23.484,23.484,0,0,1,3.177,5.274,2.373,2.373,0,0,1,5.539,2.687H9.1a2.373,2.373,0,0,1,2.373,2.041A15.237,15.237,0,0,0,12.3,8.062a2.373,2.373,0,0,1-.534,2.5l-1.507,1.507a18.986,18.986,0,0,0,7.12,7.12l1.507-1.507a2.373,2.373,0,0,1,2.5-.534,15.236,15.236,0,0,0,3.334.831A2.373,2.373,0,0,1,26.768,20.391Z" transform="translate(-2.167 -0.396)" fill="none" stroke="rgba(255,255,255,0.87)" stroke-linecap="round" stroke-linejoin="round" stroke-width="2"/>
</svg>
