<svg xmlns="http://www.w3.org/2000/svg" width="20.142" height="17.924" viewBox="0 0 20.142 17.924">
  <path id="house_FILL0_wght400_GRAD0_opsz48" d="M13.913,24.424H8.563a.778.778,0,0,1-.8-.8V15.863H5.594a.378.378,0,0,1-.375-.254.356.356,0,0,1,.107-.441l9.39-8.454a.776.776,0,0,1,1.07,0L20.6,10.968V8.64a.778.778,0,0,1,.8-.8h.535a.778.778,0,0,1,.8.8v4.307l2.434,2.22a.392.392,0,0,1-.268.7H22.742v7.758a.778.778,0,0,1-.8.8h-5.35V18H13.913ZM9.366,22.819h2.943V17.2a.778.778,0,0,1,.8-.8h4.28a.778.778,0,0,1,.8.8v5.618h2.943V13.7l-5.885-5.35L9.366,13.7Zm3.612-9.363h4.548A1.825,1.825,0,0,0,16.843,12a2.49,2.49,0,0,0-3.184,0A1.825,1.825,0,0,0,12.977,13.456Zm.134,2.943h0Z" transform="translate(-5.183 -6.5)" fill="rgba(0,0,0,0.38)"/>
</svg>
