<svg xmlns="http://www.w3.org/2000/svg" width="25.002" height="25.002" viewBox="0 0 25.002 25.002">
  <path id="Icon_awesome-telegram" data-name="Icon awesome-telegram" d="M12.5.563A12.5,12.5,0,1,0,25,13.064,12.5,12.5,0,0,0,12.5.563Zm6.14,8.564L16.589,18.8c-.151.686-.56.852-1.129.529l-3.125-2.3-1.507,1.452a.789.789,0,0,1-.63.307l.222-3.181,5.792-5.232c.252-.222-.055-.348-.388-.126L8.665,14.747,5.58,13.784c-.67-.212-.686-.67.141-.993L17.774,8.144c.56-.2,1.048.136.867.983Z" transform="translate(0 -0.563)" fill="#fff"/>
</svg>
