<svg xmlns="http://www.w3.org/2000/svg" width="23.708" height="25.002" viewBox="0 0 23.708 25.002">
  <path id="Icon_awesome-viber" data-name="Icon awesome-viber" d="M21.962,2.437c-.62-.571-3.13-2.392-8.725-2.417,0,0-6.6-.4-9.809,2.554C1.641,4.361,1.011,6.983.943,10.23S.791,19.561,6.655,21.211h0l0,2.519s-.039,1.02.635,1.226c.811.254,1.289-.522,2.065-1.357.425-.459,1.011-1.133,1.455-1.645a22.689,22.689,0,0,0,7.446-.547c.811-.264,5.4-.85,6.137-6.933.771-6.279-.371-10.244-2.432-12.036Zm.679,11.577c-.63,5.078-4.346,5.4-5.029,5.62a20.992,20.992,0,0,1-6.406.547s-2.539,3.061-3.33,3.857c-.259.259-.542.234-.537-.278,0-.337.02-4.184.02-4.184h0C2.388,18.2,2.681,13.018,2.734,10.308S3.3,5.377,4.814,3.883c2.72-2.466,8.32-2.1,8.32-2.1,4.731.02,7,1.445,7.524,1.924C22.4,5.2,23.29,8.775,22.641,14.014Zm-6.787-3.945a.315.315,0,0,1-.63.029,1.51,1.51,0,0,0-1.592-1.655.315.315,0,0,1,.034-.63A2.123,2.123,0,0,1,15.854,10.069Zm.991.552a3.648,3.648,0,0,0-3.7-3.872.316.316,0,0,1,.044-.63,4.276,4.276,0,0,1,4.287,4.516.315.315,0,0,1-.63-.015Zm2.295.654a.315.315,0,0,1-.63,0c-.029-3.979-2.681-6.147-5.9-6.172a.315.315,0,0,1,0-.63C16.211,4.5,19.106,6.988,19.14,11.275Zm-.552,4.79v.01c-.527.928-1.514,1.953-2.529,1.626l-.01-.015a18.768,18.768,0,0,1-4.99-2.759,12.764,12.764,0,0,1-2.07-2.07,15.844,15.844,0,0,1-1.5-2.275,14.59,14.59,0,0,1-1.269-2.72c-.327-1.016.693-2,1.626-2.529h.01a.889.889,0,0,1,1.167.19s.605.723.864,1.079c.244.332.571.864.742,1.162a1.02,1.02,0,0,1-.181,1.3l-.586.469a.859.859,0,0,0-.259.684,6.114,6.114,0,0,0,4.116,4.116.859.859,0,0,0,.684-.259l.469-.586a1.02,1.02,0,0,1,1.3-.181A12.651,12.651,0,0,1,18.4,14.912.872.872,0,0,1,18.588,16.065Z" transform="translate(-0.927 -0.002)" fill="#fff"/>
</svg>
